# xmcd
#
# Track frame offsets:
#	150
#	17417
#	33317
#	54507
#	76382
#	92762
#	110450
#	129660
#	145637
#	161900
#	177782
#	193832
#	209815
#	223902
#	239010
#	260230
#
# Disc length: 4359 seconds
#
# Revision: 0
# Processed by: cddbd v1.4PL0 Copyright (c) Steve Scherf et al.
# Submitted via: dBpowerAMP V4.0
#
DISCID=f1110510
DTITLE=JusVon - Im JusVon
DYEAR=2003
DGENRE=Blues
TTITLE0=Fix It Man
TTITLE1=My Lil Lady
TTITLE2=Root Doctor
TTITLE3=I Don't Understand Me
TTITLE4=Think
TTITLE5=She Aint Givin Up No Love
TTITLE6=Something For You
TTITLE7=Keep It In The Family
TTITLE8=Time To Move On
TTITLE9=Driveway Blues
TTITLE10=Do It Together
TTITLE11=What Changed Your Mind
TTITLE12=Just Your Fool
TTITLE13=Here Comes A Fool
TTITLE14=Thank You
TTITLE15=You For Me And Me For You
EXTD=
EXTT0=
EXTT1=
EXTT2=
EXTT3=
EXTT4=
EXTT5=
EXTT6=
EXTT7=
EXTT8=
EXTT9=
EXTT10=
EXTT11=
EXTT12=
EXTT13=
EXTT14=
EXTT15=
PLAYORDER=
